<svg xmlns="http://www.w3.org/2000/svg" width="3840" height="640" viewBox="0 0 1920 320">
<title>Oscars: Best Picture Nominees — detail</title>
<defs><linearGradient id="fade" x1="0" y1="0" x2="0" y2="1"><stop offset="0" stop-color="#0d0d0d" stop-opacity="0"/><stop offset=".65" stop-color="#0d0d0d" stop-opacity="0"/><stop offset="1" stop-color="#0d0d0d"/></linearGradient></defs>
<rect x="0" y="0" width="1920" height="320" fill="#0d0d0d" />
<g color="#9e9179" stroke="#9e9179" stroke-width="1.2" stroke-linejoin="round" stroke-linecap="round" opacity=".9" transform="translate(1210 0) scale(0.72)"><path d="M160 173L169.13418282062503 197.42787590741332L195.18909110292068 198.56637120812695L174.7794182632267 214.8021240925867L181.74805433482152 239.93362879187305L160 225.54L138.25194566517848 239.93362879187305L145.2205817367733 214.8021240925867L124.81090889707932 198.56637120812695L150.86581717937497 197.42787590741332Z" fill="currentColor" /><path d="M275 238L284.134182820625 262.4278759074133L310.18909110292066 263.56637120812695L289.77941826322666 279.80212409258667L296.7480543348215 304.93362879187305L275 290.54L253.25194566517848 304.93362879187305L260.22058173677334 279.80212409258667L239.81090889707932 263.56637120812695L265.865817179375 262.4278759074133Z" fill="currentColor" /><path d="M390 173L399.134182820625 197.42787590741332L425.18909110292066 198.56637120812695L404.77941826322666 214.8021240925867L411.7480543348215 239.93362879187305L390 225.54L368.2519456651785 239.93362879187305L375.22058173677334 214.8021240925867L354.81090889707934 198.56637120812695L380.865817179375 197.42787590741332Z" fill="currentColor" /><path d="M505 238L514.134182820625 262.4278759074133L540.1890911029207 263.56637120812695L519.7794182632267 279.80212409258667L526.7480543348215 304.93362879187305L505 290.54L483.2519456651785 304.93362879187305L490.22058173677334 279.80212409258667L469.81090889707934 263.56637120812695L495.865817179375 262.4278759074133Z" fill="currentColor" /><path d="M620 173L629.134182820625 197.42787590741332L655.1890911029207 198.56637120812695L634.7794182632267 214.8021240925867L641.7480543348215 239.93362879187305L620 225.54L598.2519456651785 239.93362879187305L605.2205817367733 214.8021240925867L584.8109088970793 198.56637120812695L610.865817179375 197.42787590741332Z" fill="currentColor" /><g transform="translate(98 367) scale(0.6)" ><g transform="translate(0 0) rotate(-25)" ><path d="M0 0Q-32 -35 -12 -48Q12 -30 0 0Z" fill="currentColor" /></g><g transform="translate(7 -21) rotate(-21)" ><path d="M0 0Q-32 -35 -12 -48Q12 -30 0 0Z" fill="currentColor" /></g><g transform="translate(14 -42) rotate(-17)" ><path d="M0 0Q-32 -35 -12 -48Q12 -30 0 0Z" fill="currentColor" /></g><g transform="translate(21 -63) rotate(-13)" ><path d="M0 0Q-32 -35 -12 -48Q12 -30 0 0Z" fill="currentColor" /></g><g transform="translate(28 -84) rotate(-9)" ><path d="M0 0Q-32 -35 -12 -48Q12 -30 0 0Z" fill="currentColor" /></g><g transform="translate(35 -105) rotate(-5)" ><path d="M0 0Q-32 -35 -12 -48Q12 -30 0 0Z" fill="currentColor" /></g><g transform="translate(42 -126) rotate(-1)" ><path d="M0 0Q-32 -35 -12 -48Q12 -30 0 0Z" fill="currentColor" /></g><g transform="translate(49 -147) rotate(3)" ><path d="M0 0Q-32 -35 -12 -48Q12 -30 0 0Z" fill="currentColor" /></g><g transform="translate(56 -168) rotate(7)" ><path d="M0 0Q-32 -35 -12 -48Q12 -30 0 0Z" fill="currentColor" /></g><g transform="translate(63 -189) rotate(11)" ><path d="M0 0Q-32 -35 -12 -48Q12 -30 0 0Z" fill="currentColor" /></g><path d="M0 10Q20 -110 90 -220" fill="none" /></g><g transform="translate(780 0) scale(-1 1)" ><g transform="translate(98 367) scale(0.6)" ><g transform="translate(0 0) rotate(-25)" ><path d="M0 0Q-32 -35 -12 -48Q12 -30 0 0Z" fill="currentColor" /></g><g transform="translate(7 -21) rotate(-21)" ><path d="M0 0Q-32 -35 -12 -48Q12 -30 0 0Z" fill="currentColor" /></g><g transform="translate(14 -42) rotate(-17)" ><path d="M0 0Q-32 -35 -12 -48Q12 -30 0 0Z" fill="currentColor" /></g><g transform="translate(21 -63) rotate(-13)" ><path d="M0 0Q-32 -35 -12 -48Q12 -30 0 0Z" fill="currentColor" /></g><g transform="translate(28 -84) rotate(-9)" ><path d="M0 0Q-32 -35 -12 -48Q12 -30 0 0Z" fill="currentColor" /></g><g transform="translate(35 -105) rotate(-5)" ><path d="M0 0Q-32 -35 -12 -48Q12 -30 0 0Z" fill="currentColor" /></g><g transform="translate(42 -126) rotate(-1)" ><path d="M0 0Q-32 -35 -12 -48Q12 -30 0 0Z" fill="currentColor" /></g><g transform="translate(49 -147) rotate(3)" ><path d="M0 0Q-32 -35 -12 -48Q12 -30 0 0Z" fill="currentColor" /></g><g transform="translate(56 -168) rotate(7)" ><path d="M0 0Q-32 -35 -12 -48Q12 -30 0 0Z" fill="currentColor" /></g><g transform="translate(63 -189) rotate(11)" ><path d="M0 0Q-32 -35 -12 -48Q12 -30 0 0Z" fill="currentColor" /></g><path d="M0 10Q20 -110 90 -220" fill="none" /></g></g></g>
<rect x="0" y="0" width="1920" height="320" fill="url(#fade)" stroke="none"/>
</svg>