<svg xmlns="http://www.w3.org/2000/svg" width="3840" height="640" viewBox="0 0 1920 320">
<title>Best Movies of 2024 — detail</title>
<defs><linearGradient id="fade" x1="0" y1="0" x2="0" y2="1"><stop offset="0" stop-color="#0d0d0d" stop-opacity="0"/><stop offset=".65" stop-color="#0d0d0d" stop-opacity="0"/><stop offset="1" stop-color="#0d0d0d"/></linearGradient></defs>
<rect x="0" y="0" width="1920" height="320" fill="#0d0d0d" />
<g color="#bda17e" stroke="#bda17e" stroke-width="1.2" stroke-linejoin="round" stroke-linecap="round" opacity=".9" transform="translate(1210 0) scale(0.72)"><g transform="rotate(-11 375 215)" ><rect x="50" y="130" width="650" height="170" fill="#141719" /><rect x="58" y="137" width="10" height="9" fill="currentColor" /><rect x="58" y="284" width="10" height="9" fill="currentColor" /><rect x="82" y="137" width="10" height="9" fill="currentColor" /><rect x="82" y="284" width="10" height="9" fill="currentColor" /><rect x="106" y="137" width="10" height="9" fill="currentColor" /><rect x="106" y="284" width="10" height="9" fill="currentColor" /><rect x="130" y="137" width="10" height="9" fill="currentColor" /><rect x="130" y="284" width="10" height="9" fill="currentColor" /><rect x="154" y="137" width="10" height="9" fill="currentColor" /><rect x="154" y="284" width="10" height="9" fill="currentColor" /><rect x="178" y="137" width="10" height="9" fill="currentColor" /><rect x="178" y="284" width="10" height="9" fill="currentColor" /><rect x="202" y="137" width="10" height="9" fill="currentColor" /><rect x="202" y="284" width="10" height="9" fill="currentColor" /><rect x="226" y="137" width="10" height="9" fill="currentColor" /><rect x="226" y="284" width="10" height="9" fill="currentColor" /><rect x="250" y="137" width="10" height="9" fill="currentColor" /><rect x="250" y="284" width="10" height="9" fill="currentColor" /><rect x="274" y="137" width="10" height="9" fill="currentColor" /><rect x="274" y="284" width="10" height="9" fill="currentColor" /><rect x="298" y="137" width="10" height="9" fill="currentColor" /><rect x="298" y="284" width="10" height="9" fill="currentColor" /><rect x="322" y="137" width="10" height="9" fill="currentColor" /><rect x="322" y="284" width="10" height="9" fill="currentColor" /><rect x="346" y="137" width="10" height="9" fill="currentColor" /><rect x="346" y="284" width="10" height="9" fill="currentColor" /><rect x="370" y="137" width="10" height="9" fill="currentColor" /><rect x="370" y="284" width="10" height="9" fill="currentColor" /><rect x="394" y="137" width="10" height="9" fill="currentColor" /><rect x="394" y="284" width="10" height="9" fill="currentColor" /><rect x="418" y="137" width="10" height="9" fill="currentColor" /><rect x="418" y="284" width="10" height="9" fill="currentColor" /><rect x="442" y="137" width="10" height="9" fill="currentColor" /><rect x="442" y="284" width="10" height="9" fill="currentColor" /><rect x="466" y="137" width="10" height="9" fill="currentColor" /><rect x="466" y="284" width="10" height="9" fill="currentColor" /><rect x="490" y="137" width="10" height="9" fill="currentColor" /><rect x="490" y="284" width="10" height="9" fill="currentColor" /><rect x="514" y="137" width="10" height="9" fill="currentColor" /><rect x="514" y="284" width="10" height="9" fill="currentColor" /><rect x="538" y="137" width="10" height="9" fill="currentColor" /><rect x="538" y="284" width="10" height="9" fill="currentColor" /><rect x="562" y="137" width="10" height="9" fill="currentColor" /><rect x="562" y="284" width="10" height="9" fill="currentColor" /><rect x="586" y="137" width="10" height="9" fill="currentColor" /><rect x="586" y="284" width="10" height="9" fill="currentColor" /><rect x="610" y="137" width="10" height="9" fill="currentColor" /><rect x="610" y="284" width="10" height="9" fill="currentColor" /><rect x="634" y="137" width="10" height="9" fill="currentColor" /><rect x="634" y="284" width="10" height="9" fill="currentColor" /><rect x="658" y="137" width="10" height="9" fill="currentColor" /><rect x="658" y="284" width="10" height="9" fill="currentColor" /><rect x="682" y="137" width="10" height="9" fill="currentColor" /><rect x="682" y="284" width="10" height="9" fill="currentColor" /><rect x="66" y="158" width="90" height="114" fill="#202326" /><rect x="176" y="158" width="90" height="114" fill="#202326" /><rect x="286" y="158" width="90" height="114" fill="#202326" /><rect x="396" y="158" width="90" height="114" fill="#202326" /><rect x="506" y="158" width="90" height="114" fill="#202326" /></g><circle cx="567" cy="95" r="47" fill="#826449" /></g>
<rect x="0" y="0" width="1920" height="320" fill="url(#fade)" stroke="none"/>
</svg>