<svg xmlns="http://www.w3.org/2000/svg" width="3840" height="1000" viewBox="0 0 1920 500">
<title>Criterion Collection — home</title>
<defs><linearGradient id="fade" x1="0" y1="0" x2="0" y2="1"><stop offset="0" stop-color="#0d0d0d" stop-opacity="0"/><stop offset=".65" stop-color="#0d0d0d" stop-opacity="0"/><stop offset="1" stop-color="#0d0d0d"/></linearGradient></defs>
<rect x="0" y="0" width="1920" height="500" fill="#0d0d0d" />
<g color="#b2b7b6" stroke="#b2b7b6" stroke-width="1.2" stroke-linejoin="round" stroke-linecap="round" opacity=".9" transform="translate(1080 12) scale(1.02)"><circle cx="393" cy="211" r="55" fill="none" /><circle cx="393" cy="211" r="77" fill="none" /><circle cx="393" cy="211" r="99" fill="none" /><circle cx="393" cy="211" r="121" fill="none" /><circle cx="393" cy="211" r="143" fill="none" /><circle cx="393" cy="211" r="165" fill="none" /><circle cx="393" cy="211" r="187" fill="none" /><rect x="395" y="50" width="240" height="320" fill="#0d0d0d" stroke="none"/><g transform="rotate(-9 400 211)" ><rect x="388" y="148" width="295" height="127" fill="#141719" /><rect x="396" y="155" width="10" height="9" fill="currentColor" /><rect x="396" y="259" width="10" height="9" fill="currentColor" /><rect x="420" y="155" width="10" height="9" fill="currentColor" /><rect x="420" y="259" width="10" height="9" fill="currentColor" /><rect x="444" y="155" width="10" height="9" fill="currentColor" /><rect x="444" y="259" width="10" height="9" fill="currentColor" /><rect x="468" y="155" width="10" height="9" fill="currentColor" /><rect x="468" y="259" width="10" height="9" fill="currentColor" /><rect x="492" y="155" width="10" height="9" fill="currentColor" /><rect x="492" y="259" width="10" height="9" fill="currentColor" /><rect x="516" y="155" width="10" height="9" fill="currentColor" /><rect x="516" y="259" width="10" height="9" fill="currentColor" /><rect x="540" y="155" width="10" height="9" fill="currentColor" /><rect x="540" y="259" width="10" height="9" fill="currentColor" /><rect x="564" y="155" width="10" height="9" fill="currentColor" /><rect x="564" y="259" width="10" height="9" fill="currentColor" /><rect x="588" y="155" width="10" height="9" fill="currentColor" /><rect x="588" y="259" width="10" height="9" fill="currentColor" /><rect x="612" y="155" width="10" height="9" fill="currentColor" /><rect x="612" y="259" width="10" height="9" fill="currentColor" /><rect x="636" y="155" width="10" height="9" fill="currentColor" /><rect x="636" y="259" width="10" height="9" fill="currentColor" /><rect x="660" y="155" width="10" height="9" fill="currentColor" /><rect x="660" y="259" width="10" height="9" fill="currentColor" /><rect x="404" y="176" width="90" height="71" fill="#202326" /><rect x="514" y="176" width="90" height="71" fill="#202326" /></g></g>
<rect x="0" y="0" width="1920" height="500" fill="url(#fade)" stroke="none"/>
</svg>