<svg xmlns="http://www.w3.org/2000/svg" width="3840" height="640" viewBox="0 0 1920 320">
<title>1001 Movies — detail</title>
<defs><linearGradient id="fade" x1="0" y1="0" x2="0" y2="1"><stop offset="0" stop-color="#0d0d0d" stop-opacity="0"/><stop offset=".65" stop-color="#0d0d0d" stop-opacity="0"/><stop offset="1" stop-color="#0d0d0d"/></linearGradient></defs>
<rect x="0" y="0" width="1920" height="320" fill="#0d0d0d" />
<g color="#b1a18d" stroke="#b1a18d" stroke-width="1.2" stroke-linejoin="round" stroke-linecap="round" opacity=".9" transform="translate(1210 0) scale(0.72)"><g transform="rotate(-1 90 330)" ><rect x="70" y="91" width="49" height="244" fill="#37332d" /></g><g transform="rotate(0 159 330)" ><rect x="139" y="91" width="49" height="244" fill="#37332d" /></g><g transform="rotate(1 228 330)" ><rect x="208" y="91" width="49" height="244" fill="#37332d" /></g><g transform="rotate(-1 297 330)" ><rect x="277" y="91" width="49" height="244" fill="#37332d" /></g><g transform="rotate(0 366 330)" ><rect x="346" y="91" width="49" height="244" fill="#37332d" /></g><g transform="rotate(1 435 330)" ><rect x="415" y="91" width="49" height="244" fill="#37332d" /></g><g transform="rotate(-1 504 330)" ><rect x="484" y="91" width="49" height="244" fill="#37332d" /></g><g transform="rotate(0 573 330)" ><rect x="553" y="91" width="49" height="244" fill="#37332d" /></g><g transform="rotate(1 642 330)" ><rect x="622" y="91" width="49" height="244" fill="#37332d" /></g><path d="M58 349L720 349" fill="none" /></g>
<rect x="0" y="0" width="1920" height="320" fill="url(#fade)" stroke="none"/>
</svg>